HIERARCHY
ROOT RootJoint
{
    OFFSET   0.000000   0.000000   0.000000
    CHANNELS 6 Xposition Yposition Zposition Xrotation Yrotation Zrotation
    JOINT pelvis_lowerback
    {
        OFFSET   0.000000   0.093605   0.000000
        CHANNELS 3 Xrotation Yrotation Zrotation
        JOINT lowerback_torso
        {
            OFFSET   0.000000   0.100000   0.000000
            CHANNELS 3 Xrotation Yrotation Zrotation
            JOINT torso_head
            {
                OFFSET   0.000000   0.282350   0.000000
                CHANNELS 3 Xrotation Yrotation Zrotation
                End Site
                {
                    OFFSET   0.000000   0.192650   0.000000
                }
            }
            JOINT rTorso_Clavicle
            {
                OFFSET  -0.001000   0.157500   0.000000
                CHANNELS 3 Xrotation Yrotation Zrotation
                JOINT rShoulder
                {
                    OFFSET  -0.117647   0.000000   0.000000
                    CHANNELS 3 Xrotation Yrotation Zrotation
                    JOINT rElbow
                    {
                        OFFSET  -0.245000   0.000000   0.000000
                        CHANNELS 3 Xrotation Yrotation Zrotation
                        JOINT rWrist
                        {
                            OFFSET  -0.240000   0.000000   0.000000
                            CHANNELS 3 Xrotation Yrotation Zrotation
                            End Site
                            {
                                OFFSET  -0.116353  -0.002500   0.000000
                            }
                        }
                    }
                }
            }
            JOINT lTorso_Clavicle
            {
                OFFSET   0.001000   0.157500   0.000000
                CHANNELS 3 Xrotation Yrotation Zrotation
                JOINT lShoulder
                {
                    OFFSET   0.117647   0.000000   0.000000
                    CHANNELS 3 Xrotation Yrotation Zrotation
                    JOINT lElbow
                    {
                        OFFSET   0.245000   0.000000   0.000000
                        CHANNELS 3 Xrotation Yrotation Zrotation
                        JOINT lWrist
                        {
                            OFFSET   0.240000   0.000000   0.000000
                            CHANNELS 3 Xrotation Yrotation Zrotation
                            End Site
                            {
                                OFFSET   0.116353  -0.002500   0.000000
                            }
                        }
                    }
                }
            }
        }
    }
    JOINT rHip
    {
        OFFSET  -0.100000  -0.051395   0.000000
        CHANNELS 3 Xrotation Yrotation Zrotation
        JOINT rKnee
        {
            OFFSET   0.000000  -0.410000   0.000000
            CHANNELS 3 Xrotation Yrotation Zrotation
            JOINT rAnkle
            {
                OFFSET   0.000000  -0.390000   0.000000
                CHANNELS 3 Xrotation Yrotation Zrotation
                JOINT rToeJoint
                {
                    OFFSET   0.000000  -0.050000   0.130000
                    CHANNELS 3 Xrotation Yrotation Zrotation
                    End Site
                    {
                        OFFSET  -0.010000   0.002000   0.060000
                    }
                }
            }
        }
    }
    JOINT lHip
    {
        OFFSET   0.100000  -0.051395   0.000000
        CHANNELS 3 Xrotation Yrotation Zrotation
        JOINT lKnee
        {
            OFFSET   0.000000  -0.410000   0.000000
            CHANNELS 3 Xrotation Yrotation Zrotation
            JOINT lAnkle
            {
                OFFSET   0.000000  -0.390000   0.000000
                CHANNELS 3 Xrotation Yrotation Zrotation
                JOINT lToeJoint
                {
                    OFFSET   0.000000  -0.050000   0.130000
                    CHANNELS 3 Xrotation Yrotation Zrotation
                    End Site
                    {
                        OFFSET   0.010000   0.002000   0.060000
                    }
                }
            }
        }
    }
}
MOTION
Frames: 15
Frame Time:   0.008333
 -1.582491   0.927120   3.610320 -122.681912  45.202007  94.047772  40.392191  -7.166410  15.712636   6.185732  -9.528343   9.369706   9.500210   4.985439  -2.602555   5.694561   3.590918  -9.519591  14.784757   7.127763  45.718541   0.002527  35.773795  -0.014503   0.538301   3.418770  -3.916851  -1.816699 -29.928730  21.912369 -38.057314 -40.161878 -20.624983   0.069555 -73.134860   0.072071  -2.221350 -10.983445  13.976333 -91.000035   4.012928 -20.223981  21.941438   0.009377  -0.002135   6.422283  -9.125860  11.017609  -0.584716   0.006879  -0.001589  37.377437   4.011172  25.201312  26.559735  -0.001882  -0.009578 -21.574765  -7.820613   7.328056  -1.931298   0.000623   0.004767
 -1.580984   0.926073   3.612532 -123.309753  44.670510  94.530072  40.799007  -7.137843  16.026867   6.341028  -9.490506   9.683281   9.337289   5.181781  -2.676634   5.531536   3.655950  -9.771941  15.137201   7.429350  45.621176   0.001836  35.724606  -0.011161   0.481834   3.678020  -3.706557  -1.855147 -29.920292  22.229168 -37.869078 -40.608141 -20.365317   0.078749 -73.886731   0.083361  -2.380357 -10.989182  13.793723 -91.591237   4.161904 -20.127806  23.164999   0.001332  -0.002750   6.001900  -8.850799  11.423798  -0.475903   0.004527  -0.001025  37.915295   4.232044  25.351230  25.709429  -0.003879  -0.010933 -21.082582  -7.909042   7.454248  -1.838042   0.000514   0.004174
 -1.579537   0.924490   3.615012 -123.963234  44.178576  94.980391  41.157300  -7.116891  16.344898   6.444350  -9.455981   9.993351   9.167863   5.364191  -2.739706   5.394926   3.698039 -10.008149  15.486667   7.692845  45.527623   0.001280  35.659980  -0.008419   0.418794   3.823667  -3.472916  -1.909291 -29.881346  22.521547 -37.681950 -41.016115 -20.102825   0.084475 -74.604376   0.090927  -2.533895 -10.994105  13.584573 -92.146051   4.294885 -19.978042  24.528471  -0.006469  -0.002062   5.628074  -8.592415  11.806163  -0.309398   0.002157  -0.000392  38.379926   4.403259  25.601728  24.801856  -0.005081  -0.012118 -20.619190  -7.990511   7.574153  -1.701828   0.000359   0.003842
 -1.578172   0.922325   3.617641 -124.611368  43.701212  95.430170  41.473246  -7.111856  16.630425   6.518486  -9.433101  10.277570   9.005476   5.534443  -2.795987   5.276292   3.721468 -10.228954  15.824454   7.928411  45.440734   0.000881  35.593223  -0.006271   0.354257   3.915535  -3.239141  -1.974146 -29.834266  22.792392 -37.505067 -41.388745 -19.845217   0.086748 -75.273274   0.094622  -2.679387 -11.000693  13.393218 -92.619375   4.395738 -19.790288  25.850427  -0.012954  -0.000997   5.281634  -8.352109  12.164984  -0.142354   0.000255   0.000114  38.770396   4.533758  25.872938  23.921917  -0.005758  -0.012993 -20.187200  -8.065197   7.687151  -1.573878   0.000210   0.003553
 -1.576518   0.921918   3.619770 -124.572356  43.076427  95.511673  41.810516  -6.993737  16.630283   6.690574  -9.343573  10.441116   8.870818   5.693434  -2.877481   5.162393   3.755580 -10.316862  16.130799   8.156293  45.391285   0.000446  35.515927  -0.004536   0.290266   3.913237  -3.055552  -1.970124 -29.750013  22.946813 -37.303386 -41.726165 -19.653439   0.089096 -75.923508   0.096975  -2.813287 -11.003895  13.182490 -92.829693   4.352787 -19.180678  27.167160  -0.018431  -0.001922   4.954976  -8.123771  12.504562  -0.013910  -0.000921   0.000184  39.462096   4.615277  25.969559  23.924512  -0.004606  -0.010391 -20.550365  -8.221232   7.686604  -1.374197  -0.000152   0.002853
 -1.574987   0.922003   3.621461 -124.649429  42.586466  95.736358  42.028948  -6.961042  16.714129   6.784688  -9.288568  10.600297   8.730447   5.841488  -2.952809   5.065691   3.762235 -10.422247  16.430498   8.361014  45.347520   0.000107  35.445511  -0.003237   0.226959   3.917320  -2.838669  -1.956626 -29.660409  23.097702 -37.101548 -42.026857 -19.473042   0.091247 -76.520018   0.099117  -2.945854 -11.008794  12.978821 -93.030787   4.306739 -18.710005  28.406682  -0.021895  -0.002728   4.652119  -7.913521  12.822626   0.120097  -0.001822   0.000168  40.069643   4.690948  26.046910  23.667874  -0.003494  -0.008854 -20.692783  -8.429028   7.614590  -1.264696  -0.000208   0.002288
 -1.573646   0.922357   3.622877 -124.794782  42.203369  96.033110  42.181318  -6.965582  16.841120   6.818172  -9.254057  10.777736   8.588675   5.980606  -3.013768   4.979254   3.757560 -10.538126  16.717007   8.545267  45.300971  -0.000151  35.379528  -0.002251   0.165387   3.924162  -2.621937  -1.959318 -29.574957  23.253090 -36.913655 -42.303800 -19.289202   0.092492 -77.070757   0.100425  -3.072824 -11.014027  12.783354 -93.195364   4.259975 -18.319681  29.567271  -0.023887  -0.003041   4.369290  -7.720006  13.119709   0.248237  -0.002422   0.000133  40.587844   4.739032  26.111080  23.292810  -0.002595  -0.007867 -20.719167  -8.641666   7.570788  -1.163363  -0.000252   0.001835
 -1.572677   0.923082   3.624135 -125.046430  41.907087  96.587787  42.190966  -7.063416  16.838204   6.931904  -9.368662  10.993627   8.319661   6.155254  -3.036293   4.747039   3.799939 -10.532294  16.951659   8.731631  45.384800  -0.001595  35.067826  -0.000597   0.032182   3.967445  -2.557156  -2.109360 -29.420613  23.242380 -36.388155 -42.586387 -18.996792   0.092232 -77.512139   0.099407  -3.154816 -11.015917  12.660824 -93.499689   4.409089 -17.989487  31.516820  -0.029887  -0.003687   4.439121  -7.335401  13.552249   0.715390  -0.005448  -0.000136  41.013466   4.724974  26.061267  22.709863  -0.002075  -0.007952 -20.582219  -8.957031   7.667186  -0.923989  -0.000647   0.001477
 -1.572330   0.924040   3.625245 -125.344350  41.714449  97.199519  42.178246  -7.151794  16.860669   7.020375  -9.473043  11.216939   8.047954   6.317417  -3.054151   4.533993   3.831919 -10.477986  17.171368   8.912021  45.498442  -0.003045  34.770799   0.000899  -0.106537   3.953494  -2.480830  -2.234727 -29.244297  23.216192 -35.865238 -42.816609 -18.714836   0.091206 -77.906744   0.097275  -3.232518 -11.014058  12.503864 -93.698544   4.518597 -17.677537  33.490320  -0.035153  -0.003464   4.517327  -6.973075  13.955916   1.209883  -0.007937  -0.000573  41.306661   4.663547  25.991173  22.064122  -0.001754  -0.008157 -20.339347  -9.271416   7.794582  -0.719008  -0.000918   0.001190
 -1.572522   0.925128   3.626229 -125.667215  41.611994  97.845742  42.147723  -7.228678  16.898500   7.096770  -9.558584  11.443870   7.789749   6.469138  -3.067232   4.340232   3.855622 -10.401608  17.378958   9.085617  45.625753  -0.004307  34.494114   0.002204  -0.240723   3.934698  -2.361965  -2.348420 -29.059734  23.184549 -35.360795 -43.011742 -18.443635   0.089540 -78.266670   0.094408  -3.307504 -11.010632  12.333116 -93.779520   4.581311 -17.376202  35.390135  -0.039128  -0.002617   4.591278  -6.633961  14.332121   1.675520  -0.009633  -0.001012  41.477509   4.558505  25.896850  21.398292  -0.001568  -0.008282 -20.024204  -9.574664   7.944037  -0.543799  -0.001081   0.000961
 -1.573142   0.926284   3.627112 -126.003654  41.584358  98.515932  42.104016  -7.296261  16.944266   7.165394  -9.628946  11.668410   7.548022   6.611165  -3.076414   4.163159   3.873181 -10.315210  17.574746   9.251087  45.757679  -0.005310  34.236588   0.003282  -0.369209   3.920008  -2.210048  -2.454332 -28.874016  23.151242 -34.879706 -43.181109 -18.183909   0.087256 -78.597876   0.090944  -3.379622 -11.006384  12.157893 -93.755135   4.602728 -17.083276  37.204729  -0.041875  -0.001453   4.660056  -6.316735  14.682899   2.109015  -0.010691  -0.001422  41.544776   4.418097  25.776792  20.730076  -0.001474  -0.008295 -19.658517  -9.865781   8.108888  -0.393286  -0.001160   0.000776
 -1.574085   0.927466   3.627916 -126.347123  41.619546  99.201562  42.050368  -7.357046  16.993813   7.227542  -9.688070  11.886468   7.322655   6.744048  -3.082594   4.000680   3.885729 -10.225714  17.759188   9.407502  45.888817  -0.006042  33.996676   0.004122  -0.492033   3.909145  -2.037702  -2.553528 -28.691349  23.118014 -34.423574 -43.330386 -17.936457   0.084393 -78.904044   0.086986  -3.448879 -11.001655  11.982511 -93.640686   4.589157 -16.798030  38.934032  -0.043538  -0.000162   4.723931  -6.020121  15.010101   2.511914  -0.011258  -0.001785  41.525923   4.250335  25.632902  20.068542  -0.001433  -0.008196 -19.258314 -10.143934   8.284014  -0.263140  -0.001179   0.000628
 -1.575259   0.928646   3.628661 -126.700862  41.699689  99.911899  41.992449  -7.417212  17.039733   7.284603  -9.742826  12.094474   7.112645   6.868106  -3.086481   3.851825   3.892464 -10.135877  17.933537   9.554054  46.017443  -0.006528  33.772808   0.004745  -0.609573   3.899952  -1.853469  -2.646204 -28.515466  23.086352 -33.993077 -43.464302 -17.701896   0.081035 -79.188078   0.082647  -3.515352 -10.996617  11.809110 -93.448900   4.548501 -16.528366  40.581328  -0.044356   0.000992   4.783329  -5.742902  15.315342   2.885971  -0.011472  -0.002118  41.427372   4.080739  25.471906  19.418249  -0.001450  -0.008202 -18.841562 -10.383534   8.465949  -0.147943  -0.001168   0.000569
 -1.576782   0.930187   3.629555 -127.080891  41.913488 100.631224  41.655140  -7.553946  17.055794   7.616103  -9.868756  12.317879   6.858579   6.995175  -3.204916   3.539771   3.897796 -10.007941  17.912707   9.672534  46.248049  -0.007326  33.472228   0.004805  -0.710865   3.863976  -1.701484  -2.839927 -28.186651  22.807072 -33.143399 -43.525524 -17.190532   0.067202 -79.233194   0.068349  -3.461765 -10.966138  11.657616 -93.334819   4.415790 -16.189898  42.868250  -0.050511   0.002796   4.830115  -5.497380  15.539776   3.209856  -0.011206  -0.002890  41.261153   3.916675  25.313818  18.565721  -0.001398  -0.008492 -18.258434 -10.646286   8.563147  -0.064459  -0.001039   0.000459
 -1.578917   0.931897   3.630576 -127.521029  42.227129 101.392677  41.305649  -7.675575  17.074762   7.922107  -9.962584  12.531102   6.610516   7.109517  -3.313772   3.243711   3.886725  -9.850981  17.887361   9.788118  46.490486  -0.007940  33.194609   0.004962  -0.816982   3.840724  -1.572809  -2.994230 -27.808890  22.508622 -32.296298 -43.505441 -16.703132   0.053760 -79.232850   0.054664  -3.406078 -10.928735  11.436140 -93.078258   4.225931 -15.830643  45.170926  -0.056171   0.006042   4.884086  -5.266967  15.749495   3.543182  -0.011062  -0.003592  40.961955   3.703374  25.161655  17.678653  -0.001332  -0.008635 -17.605906 -10.887960   8.696677   0.016537  -0.000954   0.000371
